<?xml version="1.0" encoding="UTF-8"?>
<svg xmlns="http://www.w3.org/2000/svg" xmlns:xlink="http://www.w3.org/1999/xlink" width="0" height="0">
<symbol id="arrow-left" width="28" height="30" viewBox="0 0 28 30" fill="none">
<path fill-rule="evenodd" clip-rule="evenodd" d="M16.5371 25.0827L7.29215 15.9458C6.90262 15.5612 6.90262 14.9398 7.29215 14.5542L16.5371 5.41733C17.0995 4.86089 18.0144 4.86089 18.5777 5.41733C19.14 5.97378 19.14 6.87687 18.5777 7.43332L10.6691 15.2505L18.5777 23.0657C19.14 23.6231 19.14 24.5262 18.5777 25.0827C18.0144 25.6391 17.0995 25.6391 16.5371 25.0827Z" fill="currentColor"/>
</symbol>

<symbol id="arrow-right" width="28" height="30" viewBox="0 0 28 30" fill="none">
<path fill-rule="evenodd" clip-rule="evenodd" d="M10.4629 25.0827L19.7078 15.9458C20.0974 15.5612 20.0974 14.9398 19.7078 14.5542L10.4629 5.41733C9.90053 4.86089 8.98563 4.86089 8.4223 5.41733C7.85997 5.97378 7.85997 6.87687 8.4223 7.43332L16.3309 15.2505L8.4223 23.0657C7.85997 23.6231 7.85997 24.5262 8.4223 25.0827C8.98563 25.6391 9.90053 25.6391 10.4629 25.0827Z" fill="currentColor"/>
</symbol>

<symbol id="close" width="28" height="30" viewBox="0 0 28 30" fill="none">
<path fill-rule="evenodd" clip-rule="evenodd" d="M14 29C21.732 29 28 22.732 28 15C28 7.26801 21.732 1 14 1C6.26801 1 0 7.26801 0 15C0 22.732 6.26801 29 14 29Z" fill="#C7C7CC"/>
<g filter="url(#filter0_b)">
<path fill-rule="evenodd" clip-rule="evenodd" d="M8.85518 9.85518C8.38161 10.3287 8.38161 11.0965 8.85518 11.5701L12.2851 15L8.85518 18.4299C8.38161 18.9035 8.38161 19.6713 8.85518 20.1448C9.32874 20.6184 10.0965 20.6184 10.5701 20.1448L14 16.7149L17.4299 20.1448C17.9035 20.6184 18.6713 20.6184 19.1448 20.1448C19.6184 19.6713 19.6184 18.9035 19.1448 18.4299L15.7149 15L19.1448 11.5701C19.6184 11.0965 19.6184 10.3287 19.1448 9.85518C18.6713 9.38161 17.9035 9.38161 17.4299 9.85518L14 13.2851L10.5701 9.85518C10.0965 9.38161 9.32874 9.38161 8.85518 9.85518Z" fill="white" fill-opacity="0.92"/>
</g>
<defs>
<filter x="-18.6828" y="-17.6828" width="65.3656" height="65.3656" filterUnits="userSpaceOnUse" color-interpolation-filters="sRGB">
<feFlood flood-opacity="0" result="BackgroundImageFix"/>
<feGaussianBlur in="BackgroundImage" stdDeviation="13.5914"/>
<feComposite in2="SourceAlpha" operator="in" result="effect1_backgroundBlur"/>
<feBlend mode="normal" in="SourceGraphic" in2="effect1_backgroundBlur" result="shape"/>
</filter>
</defs>
</symbol>

<symbol id="error" width="24" height="24" viewBox="0 0 24 24" fill="none">
<path d="M12 0C5.376 0 0 5.376 0 12C0 18.624 5.376 24 12 24C18.624 24 24 18.624 24 12C24 5.376 18.624 0 12 0ZM13.2 18H10.8V15.6H13.2V18ZM13.2 13.2H10.8V6H13.2V13.2Z" fill="white"/>
</symbol>

<symbol id="notification" width="30" height="30" viewBox="0 0 30 30" fill="none">
<path d="M7.19593 18.9418L10.9749 22.7196C10.7284 22.9749 10.4335 23.1785 10.1074 23.3186C9.78137 23.4587 9.43067 23.5324 9.07581 23.5355C8.72095 23.5386 8.36903 23.471 8.04058 23.3366C7.71213 23.2022 7.41374 23.0037 7.1628 22.7528C6.91187 22.5018 6.71342 22.2034 6.57904 21.8749C6.44466 21.5465 6.37704 21.1945 6.38013 20.8397C6.38321 20.4848 6.45694 20.1341 6.597 19.808C6.73707 19.4819 6.94067 19.187 7.19593 18.9404V18.9418ZM19.0447 26.0565L18.1 27L3 11.8992L3.94342 10.9544L5.416 11.1642C6.42356 11.3085 7.67432 11.0011 8.19146 10.4826L13.3829 5.29222C14.8896 3.81383 16.9189 2.99007 19.0297 3.00009C21.1404 3.01011 23.1619 3.85309 24.6544 5.34572C26.147 6.83835 26.9899 8.85991 26.9999 10.9708C27.0099 13.0816 26.1862 15.1111 24.7079 16.6178L19.5165 21.8109C18.998 22.3294 18.6906 23.5789 18.8349 24.5865L19.0447 26.0565Z" fill="white"/>
</symbol>

</svg>
